<mxfile host="app.diagrams.net" agent="Mozilla/5.0 (Windows NT 10.0; Win64; x64) AppleWebKit/537.36 (KHTML, like Gecko) Chrome/140.0.0.0 Safari/537.36" version="28.2.3">
  <diagram name="Trang-1" id="Z1QZtPTRgYWfiiLPWT30">
    <mxGraphModel dx="872" dy="439" grid="1" gridSize="10" guides="1" tooltips="1" connect="1" arrows="1" fold="1" page="1" pageScale="1" pageWidth="827" pageHeight="1169" math="0" shadow="0">
      <root>
        <mxCell id="0" />
        <mxCell id="1" parent="0" />
        <mxCell id="3wNhKokTITHbVldZuhYy-1" value="" style="swimlane;whiteSpace=wrap;html=1;" vertex="1" parent="1">
          <mxGeometry x="40" y="30" width="280" height="260" as="geometry" />
        </mxCell>
        <mxCell id="3wNhKokTITHbVldZuhYy-2" value="nhập dữ liệu ( input )&amp;nbsp;" style="rounded=0;whiteSpace=wrap;html=1;" vertex="1" parent="3wNhKokTITHbVldZuhYy-1">
          <mxGeometry x="40" y="30" width="200" height="60" as="geometry" />
        </mxCell>
        <mxCell id="3wNhKokTITHbVldZuhYy-3" value="nhập học tên học sinh&amp;nbsp;&lt;div&gt;ngày tháng năm sinh&amp;nbsp;&lt;/div&gt;&lt;div&gt;lớp&amp;nbsp;&lt;/div&gt;&lt;div&gt;số điểm của học sinh đạt được&amp;nbsp;&lt;/div&gt;" style="rounded=0;whiteSpace=wrap;html=1;" vertex="1" parent="3wNhKokTITHbVldZuhYy-1">
          <mxGeometry x="20" y="100" width="240" height="140" as="geometry" />
        </mxCell>
        <mxCell id="3wNhKokTITHbVldZuhYy-4" value="" style="shape=singleArrow;whiteSpace=wrap;html=1;arrowWidth=0.4;arrowSize=0.4;" vertex="1" parent="1">
          <mxGeometry x="340" y="150" width="130" height="60" as="geometry" />
        </mxCell>
        <mxCell id="3wNhKokTITHbVldZuhYy-5" value="Vertical Container" style="swimlane;whiteSpace=wrap;html=1;" vertex="1" parent="1">
          <mxGeometry x="470" y="30" width="270" height="260" as="geometry" />
        </mxCell>
        <mxCell id="3wNhKokTITHbVldZuhYy-6" value="xử lí dữ liêu ( data processing )&amp;nbsp;" style="rounded=0;whiteSpace=wrap;html=1;" vertex="1" parent="3wNhKokTITHbVldZuhYy-5">
          <mxGeometry x="40" y="40" width="200" height="60" as="geometry" />
        </mxCell>
        <mxCell id="3wNhKokTITHbVldZuhYy-7" value="tính điểm trung bình của học sinh theo công thức : tổng số điểm 3 môn chia 3&amp;nbsp;&lt;div&gt;xếp loại học lực học sinh t&lt;/div&gt;&lt;div&gt;trên 8 học sinh giỏi&amp;nbsp;&lt;/div&gt;&lt;div&gt;dưới 8 trên 5 học sinh khá&amp;nbsp;&lt;/div&gt;&lt;div&gt;dưới 5 trên 3 học sinh trung bình&amp;nbsp;&amp;nbsp;&lt;/div&gt;&lt;div&gt;dưới 3 học sinh yếu&amp;nbsp;&lt;/div&gt;&lt;div&gt;&lt;br&gt;&lt;/div&gt;" style="rounded=0;whiteSpace=wrap;html=1;" vertex="1" parent="3wNhKokTITHbVldZuhYy-5">
          <mxGeometry x="30" y="110" width="220" height="120" as="geometry" />
        </mxCell>
        <mxCell id="3wNhKokTITHbVldZuhYy-8" value="" style="shape=singleArrow;whiteSpace=wrap;html=1;arrowWidth=0.4;arrowSize=0.4;direction=south;" vertex="1" parent="1">
          <mxGeometry x="600" y="300" width="60" height="90" as="geometry" />
        </mxCell>
        <mxCell id="3wNhKokTITHbVldZuhYy-9" value="" style="swimlane;whiteSpace=wrap;html=1;" vertex="1" parent="1">
          <mxGeometry x="470" y="400" width="270" height="260" as="geometry" />
        </mxCell>
        <mxCell id="3wNhKokTITHbVldZuhYy-10" value="lưu trữ dữ liệu ( data storage )&amp;nbsp;" style="rounded=0;whiteSpace=wrap;html=1;" vertex="1" parent="3wNhKokTITHbVldZuhYy-9">
          <mxGeometry x="40" y="50" width="190" height="60" as="geometry" />
        </mxCell>
        <mxCell id="3wNhKokTITHbVldZuhYy-11" value="lưu trữ số điểm và học lực của học sinh trên hệ thống học tập của nhà trường&amp;nbsp;" style="rounded=0;whiteSpace=wrap;html=1;" vertex="1" parent="3wNhKokTITHbVldZuhYy-9">
          <mxGeometry x="20" y="125" width="230" height="115" as="geometry" />
        </mxCell>
        <mxCell id="3wNhKokTITHbVldZuhYy-13" value="" style="shape=singleArrow;whiteSpace=wrap;html=1;arrowWidth=0.4;arrowSize=0.4;direction=west;" vertex="1" parent="1">
          <mxGeometry x="360" y="490" width="100" height="60" as="geometry" />
        </mxCell>
        <mxCell id="3wNhKokTITHbVldZuhYy-14" value="Vertical Container" style="swimlane;whiteSpace=wrap;html=1;" vertex="1" parent="1">
          <mxGeometry x="40" y="400" width="280" height="260" as="geometry" />
        </mxCell>
        <mxCell id="3wNhKokTITHbVldZuhYy-16" value="xuất kết quả ( output )&amp;nbsp;" style="rounded=0;whiteSpace=wrap;html=1;" vertex="1" parent="3wNhKokTITHbVldZuhYy-14">
          <mxGeometry x="20" y="40" width="220" height="60" as="geometry" />
        </mxCell>
        <mxCell id="3wNhKokTITHbVldZuhYy-17" value="học sinh tra cứu kết quả học tập ( học lực và số điểm của mình trên hệ thống )&amp;nbsp;" style="rounded=0;whiteSpace=wrap;html=1;" vertex="1" parent="3wNhKokTITHbVldZuhYy-14">
          <mxGeometry x="10" y="110" width="250" height="120" as="geometry" />
        </mxCell>
      </root>
    </mxGraphModel>
  </diagram>
</mxfile>
